<svg xmlns="http://www.w3.org/2000/svg">

  <symbol id="users" viewBox="0 0 24 24">
    <g>
      <path d="M20.9061 18.0937H19.0311V16.2187C19.0311 16.1156 18.9467 16.0312 18.8436 16.0312H17.7186C17.6155 16.0312 17.5311 16.1156 17.5311 16.2187V18.0937H15.6561C15.553 18.0937 15.4686 18.1781 15.4686 18.2812V19.4062C15.4686 19.5093 15.553 19.5937 15.6561 19.5937H17.5311V21.4687C17.5311 21.5718 17.6155 21.6562 17.7186 21.6562H18.8436C18.9467 21.6562 19.0311 21.5718 19.0311 21.4687V19.5937H20.9061C21.0092 19.5937 21.0936 19.5093 21.0936 19.4062V18.2812C21.0936 18.1781 21.0092 18.0937 20.9061 18.0937ZM8.75376 11.6812C8.73266 11.4773 8.72094 11.2711 8.72094 11.0625C8.72094 10.6898 8.7561 10.3265 8.82173 9.97263C8.83813 9.88825 8.7936 9.80153 8.71626 9.76638C8.39751 9.62341 8.10454 9.42653 7.85141 9.1781C7.55315 8.88889 7.31844 8.54069 7.16227 8.15571C7.0061 7.77073 6.93189 7.35742 6.94438 6.94216C6.96548 6.18981 7.26782 5.47497 7.79516 4.93591C8.37407 4.34294 9.15219 4.0195 9.97954 4.02888C10.7272 4.03591 11.4491 4.32419 11.9952 4.83513C12.1803 5.00856 12.3397 5.20075 12.4733 5.407C12.5202 5.47966 12.6116 5.51013 12.6913 5.482C13.1038 5.33903 13.5397 5.23825 13.9874 5.19138C14.1186 5.17731 14.1936 5.03669 14.135 4.9195C13.3733 3.41247 11.817 2.37185 10.017 2.34372C7.42016 2.30388 5.25454 4.43435 5.25454 7.03122C5.25454 8.5031 5.93188 9.8156 6.9936 10.6758C6.24829 11.0203 5.56157 11.4961 4.96626 12.0914C3.68188 13.3734 2.95532 15.0656 2.90844 16.8726C2.90782 16.8976 2.91221 16.9225 2.92135 16.9458C2.93049 16.9691 2.9442 16.9903 2.96168 17.0082C2.97915 17.0262 3.00003 17.0404 3.02309 17.0501C3.04615 17.0598 3.07092 17.0648 3.09595 17.0648H4.41079C4.51157 17.0648 4.59594 16.9851 4.59829 16.8843C4.64282 15.525 5.1936 14.2523 6.16157 13.2867C6.85063 12.5976 7.69438 12.1195 8.61548 11.8875C8.70454 11.8617 8.76548 11.775 8.75376 11.6812ZM19.3124 11.0625C19.3124 8.49841 17.2522 6.41481 14.6975 6.37497C12.1006 6.33513 9.93735 8.4656 9.93735 11.0625C9.93735 12.5343 10.617 13.8468 11.6764 14.707C10.9234 15.0561 10.2379 15.5353 9.65141 16.1226C8.36704 17.4047 7.64048 19.0968 7.5936 20.9015C7.59298 20.9265 7.59736 20.9514 7.60651 20.9747C7.61565 20.998 7.62936 21.0192 7.64683 21.0372C7.66431 21.0551 7.68519 21.0693 7.70825 21.079C7.73131 21.0887 7.75608 21.0937 7.7811 21.0937H9.0936C9.19438 21.0937 9.27876 21.014 9.2811 20.9132C9.32563 19.5539 9.87641 18.2812 10.8444 17.3156C11.8545 16.3054 13.1952 15.75 14.6249 15.75C17.2124 15.75 19.3124 13.6523 19.3124 11.0625ZM16.7459 13.1836C16.1788 13.7508 15.4264 14.0625 14.6249 14.0625C13.8233 14.0625 13.0709 13.7508 12.5038 13.1836C12.2207 12.902 11.9971 12.5665 11.8461 12.1969C11.6951 11.8273 11.6199 11.4312 11.6249 11.032C11.6319 10.2633 11.9389 9.52028 12.4756 8.9695C13.0381 8.39294 13.7905 8.07185 14.5944 8.06247C15.3889 8.05544 16.16 8.36481 16.7272 8.92028C17.3084 9.48981 17.6272 10.2515 17.6272 11.0625C17.6249 11.864 17.3131 12.6164 16.7459 13.1836Z"/>
    </g>
  </symbol>

  <symbol id="chat" viewBox="0 0 24 24">
    <g>
      <path d="M10.8752 12C10.8752 12.2984 10.9937 12.5845 11.2047 12.7955C11.4157 13.0065 11.7018 13.125 12.0002 13.125C12.2986 13.125 12.5847 13.0065 12.7957 12.7955C13.0067 12.5845 13.1252 12.2984 13.1252 12C13.1252 11.7016 13.0067 11.4155 12.7957 11.2045C12.5847 10.9935 12.2986 10.875 12.0002 10.875C11.7018 10.875 11.4157 10.9935 11.2047 11.2045C10.9937 11.4155 10.8752 11.7016 10.8752 12ZM15.5627 12C15.5627 12.2984 15.6812 12.5845 15.8922 12.7955C16.1032 13.0065 16.3893 13.125 16.6877 13.125C16.9861 13.125 17.2722 13.0065 17.4832 12.7955C17.6942 12.5845 17.8127 12.2984 17.8127 12C17.8127 11.7016 17.6942 11.4155 17.4832 11.2045C17.2722 10.9935 16.9861 10.875 16.6877 10.875C16.3893 10.875 16.1032 10.9935 15.8922 11.2045C15.6812 11.4155 15.5627 11.7016 15.5627 12ZM6.18769 12C6.18769 12.2984 6.30622 12.5845 6.5172 12.7955C6.72818 13.0065 7.01433 13.125 7.31269 13.125C7.61106 13.125 7.89721 13.0065 8.10819 12.7955C8.31917 12.5845 8.43769 12.2984 8.43769 12C8.43769 11.7016 8.31917 11.4155 8.10819 11.2045C7.89721 10.9935 7.61106 10.875 7.31269 10.875C7.01433 10.875 6.72818 10.9935 6.5172 11.2045C6.30622 11.4155 6.18769 11.7016 6.18769 12ZM21.6846 7.93125C21.1549 6.67266 20.3955 5.54297 19.4275 4.57266C18.4663 3.60796 17.3253 2.84114 16.0689 2.31563C14.7799 1.77422 13.4111 1.5 12.0002 1.5H11.9533C10.533 1.50703 9.15723 1.78828 7.86348 2.34141C6.61791 2.87232 5.48753 3.64049 4.53535 4.60312C3.57676 5.57109 2.82441 6.69609 2.3041 7.95C1.76504 9.24844 1.49316 10.6289 1.50019 12.0492C1.50815 13.6769 1.89322 15.2806 2.62519 16.7344V20.2969C2.62519 20.5828 2.73878 20.857 2.94097 21.0592C3.14316 21.2614 3.41738 21.375 3.70332 21.375H7.26816C8.72198 22.107 10.3257 22.492 11.9533 22.5H12.0025C13.4064 22.5 14.7682 22.2281 16.0502 21.6961C17.3002 21.1768 18.437 20.419 19.3971 19.4648C20.365 18.5063 21.1268 17.3859 21.6588 16.1367C22.2119 14.843 22.4932 13.4672 22.5002 12.0469C22.5072 10.6195 22.2307 9.23437 21.6846 7.93125ZM18.1432 18.1969C16.5002 19.8234 14.3205 20.7188 12.0002 20.7188H11.9604C10.5471 20.7117 9.14316 20.3602 7.90332 19.6992L7.70644 19.5938H4.40644V16.2938L4.30098 16.0969C3.64004 14.857 3.28848 13.4531 3.28144 12.0398C3.27207 9.70313 4.16504 7.50937 5.80332 5.85703C7.43926 4.20469 9.62598 3.29062 11.9627 3.28125H12.0025C13.1744 3.28125 14.3111 3.50859 15.3822 3.95859C16.4275 4.39687 17.365 5.02734 18.1713 5.83359C18.9752 6.6375 19.608 7.57734 20.0463 8.62266C20.501 9.70547 20.7283 10.8539 20.7236 12.0398C20.7096 14.3742 19.7932 16.5609 18.1432 18.1969Z"/>
    </g>
  </symbol>

  <symbol id="bell" viewBox="0 0 24 24">
    <g>
      <path d="M19.125 18H18.5625V10.0312C18.5625 6.72422 16.118 3.99141 12.9375 3.53672V2.625C12.9375 2.10703 12.518 1.6875 12 1.6875C11.482 1.6875 11.0625 2.10703 11.0625 2.625V3.53672C7.88203 3.99141 5.4375 6.72422 5.4375 10.0312V18H4.875C4.46016 18 4.125 18.3352 4.125 18.75V19.5C4.125 19.6031 4.20937 19.6875 4.3125 19.6875H9.375C9.375 21.1359 10.5516 22.3125 12 22.3125C13.4484 22.3125 14.625 21.1359 14.625 19.6875H19.6875C19.7906 19.6875 19.875 19.6031 19.875 19.5V18.75C19.875 18.3352 19.5398 18 19.125 18ZM12 20.8125C11.3789 20.8125 10.875 20.3086 10.875 19.6875H13.125C13.125 20.3086 12.6211 20.8125 12 20.8125ZM7.125 18V10.0312C7.125 8.72813 7.63125 7.50469 8.55234 6.58359C9.47344 5.6625 10.6969 5.15625 12 5.15625C13.3031 5.15625 14.5266 5.6625 15.4477 6.58359C16.3687 7.50469 16.875 8.72813 16.875 10.0312V18H7.125Z"/>
    </g>
  </symbol>

  <symbol id="info" viewBox="0 0 24 24">
    <g>
      <path d="M12 1.5C6.20156 1.5 1.5 6.20156 1.5 12C1.5 17.7984 6.20156 22.5 12 22.5C17.7984 22.5 22.5 17.7984 22.5 12C22.5 6.20156 17.7984 1.5 12 1.5ZM12 20.7188C7.18594 20.7188 3.28125 16.8141 3.28125 12C3.28125 7.18594 7.18594 3.28125 12 3.28125C16.8141 3.28125 20.7188 7.18594 20.7188 12C20.7188 16.8141 16.8141 20.7188 12 20.7188Z"/>
      <path d="M10.875 7.875C10.875 8.17337 10.9935 8.45952 11.2045 8.6705C11.4155 8.88147 11.7016 9 12 9C12.2984 9 12.5845 8.88147 12.7955 8.6705C13.0065 8.45952 13.125 8.17337 13.125 7.875C13.125 7.57663 13.0065 7.29048 12.7955 7.0795C12.5845 6.86853 12.2984 6.75 12 6.75C11.7016 6.75 11.4155 6.86853 11.2045 7.0795C10.9935 7.29048 10.875 7.57663 10.875 7.875ZM12.5625 10.5H11.4375C11.3344 10.5 11.25 10.5844 11.25 10.6875V17.0625C11.25 17.1656 11.3344 17.25 11.4375 17.25H12.5625C12.6656 17.25 12.75 17.1656 12.75 17.0625V10.6875C12.75 10.5844 12.6656 10.5 12.5625 10.5Z"/>
    </g>
  </symbol>

  <symbol id="setting" viewBox="0 0 14 14">
    <g>
      <path d="M12.6438 8.55473L11.7483 7.7891C11.7907 7.52934 11.8126 7.2641 11.8126 6.99887C11.8126 6.73363 11.7907 6.4684 11.7483 6.20863L12.6438 5.44301C12.7114 5.38519 12.7597 5.30817 12.7824 5.22221C12.8051 5.13624 12.8011 5.0454 12.771 4.96176L12.7587 4.92621C12.5121 4.23719 12.143 3.59845 11.669 3.04086L11.6444 3.01215C11.5869 2.94454 11.5103 2.89595 11.4246 2.87276C11.339 2.84958 11.2483 2.85289 11.1645 2.88227L10.053 3.27738C9.64285 2.94106 9.18485 2.67582 8.68992 2.48988L8.47528 1.32777C8.45908 1.24033 8.41667 1.15989 8.35366 1.09713C8.29066 1.03437 8.21005 0.992262 8.12254 0.976407L8.08563 0.969571C7.37332 0.841055 6.6241 0.841055 5.9118 0.969571L5.87489 0.976407C5.78738 0.992262 5.70677 1.03437 5.64377 1.09713C5.58076 1.15989 5.53835 1.24033 5.52215 1.32777L5.30614 2.49535C4.81516 2.68133 4.35795 2.94642 3.95262 3.28012L2.83289 2.88227C2.74918 2.85266 2.65843 2.84922 2.57271 2.87242C2.487 2.89562 2.41037 2.94436 2.35301 3.01215L2.3284 3.04086C1.85501 3.59884 1.48591 4.23747 1.23875 4.92621L1.22645 4.96176C1.16493 5.13266 1.21551 5.32406 1.3536 5.44301L2.26004 6.21684C2.21766 6.47387 2.19715 6.73637 2.19715 6.9975C2.19715 7.26 2.21766 7.5225 2.26004 7.77817L1.3536 8.55199C1.28605 8.60982 1.23771 8.68683 1.215 8.7728C1.19229 8.85876 1.19628 8.9496 1.22645 9.03324L1.23875 9.06879C1.48621 9.75785 1.85262 10.3936 2.3284 10.9541L2.35301 10.9829C2.41051 11.0505 2.48714 11.0991 2.5728 11.1222C2.65847 11.1454 2.74915 11.1421 2.83289 11.1127L3.95262 10.7149C4.36004 11.0498 4.81532 11.3151 5.30614 11.4997L5.52215 12.6672C5.53835 12.7547 5.58076 12.8351 5.64377 12.8979C5.70677 12.9606 5.78738 13.0027 5.87489 13.0186L5.9118 13.0254C6.63065 13.1546 7.36678 13.1546 8.08563 13.0254L8.12254 13.0186C8.21005 13.0027 8.29066 12.9606 8.35366 12.8979C8.41667 12.8351 8.45908 12.7547 8.47528 12.6672L8.68992 11.5051C9.18465 11.3197 9.64524 11.0536 10.053 10.7176L11.1645 11.1127C11.2483 11.1423 11.339 11.1458 11.4247 11.1226C11.5104 11.0994 11.5871 11.0506 11.6444 10.9829L11.669 10.9541C12.1448 10.3922 12.5112 9.75785 12.7587 9.06879L12.771 9.03324C12.8325 8.86508 12.7819 8.67367 12.6438 8.55473ZM10.7776 6.36996C10.8118 6.57641 10.8296 6.78832 10.8296 7.00024C10.8296 7.21215 10.8118 7.42406 10.7776 7.63051L10.6874 8.17875L11.7087 9.05238C11.5539 9.40907 11.3584 9.74672 11.1263 10.0586L9.8575 9.60883L9.42821 9.96156C9.10145 10.2295 8.73778 10.4401 8.34403 10.5877L7.82313 10.7832L7.5784 12.1094C7.19227 12.1532 6.80243 12.1532 6.41629 12.1094L6.17157 10.7805L5.65477 10.5823C5.26512 10.4346 4.90282 10.2241 4.57879 9.95746L4.1495 9.60336L2.87254 10.0573C2.64012 9.74418 2.44598 9.40649 2.29012 9.05102L3.32235 8.16918L3.23348 7.62231C3.20067 7.41859 3.18289 7.20805 3.18289 7.00024C3.18289 6.79106 3.1993 6.58188 3.23348 6.37816L3.32235 5.83129L2.29012 4.94945C2.44461 4.59262 2.64012 4.25629 2.87254 3.9432L4.1495 4.39711L4.57879 4.04301C4.90282 3.77641 5.26512 3.56586 5.65477 3.4182L6.17293 3.2227L6.41766 1.89379C6.80184 1.85004 7.19422 1.85004 7.57977 1.89379L7.8245 3.21996L8.34539 3.41547C8.73778 3.56313 9.10282 3.77367 9.42957 4.04164L9.85887 4.39438L11.1276 3.94457C11.36 4.25766 11.5542 4.59535 11.71 4.95082L10.6888 5.82445L10.7776 6.36996ZM7.00008 4.45727C5.67118 4.45727 4.59383 5.53461 4.59383 6.86352C4.59383 8.19242 5.67118 9.26977 7.00008 9.26977C8.32899 9.26977 9.40633 8.19242 9.40633 6.86352C9.40633 5.53461 8.32899 4.45727 7.00008 4.45727ZM8.08289 7.94633C7.94087 8.08876 7.77209 8.2017 7.58626 8.27866C7.40043 8.35562 7.20122 8.39508 7.00008 8.39477C6.59129 8.39477 6.20711 8.23481 5.91727 7.94633C5.77484 7.80431 5.6619 7.63553 5.58494 7.4497C5.50798 7.26387 5.46852 7.06465 5.46883 6.86352C5.46883 6.45473 5.62879 6.07055 5.91727 5.7807C6.20711 5.49086 6.59129 5.33227 7.00008 5.33227C7.40887 5.33227 7.79305 5.49086 8.08289 5.7807C8.22532 5.92272 8.33827 6.09151 8.41523 6.27734C8.49219 6.46317 8.53164 6.66238 8.53133 6.86352C8.53133 7.27231 8.37137 7.65649 8.08289 7.94633Z" fill="#8C8C8C"/>
    </g>
  </symbol>

  <symbol id="like" viewBox="0 0 16 16">
    <g>
      <path d="M4.26562 7.74846V14.436L4.27031 7.74846H4.26562ZM12.675 6.36877H7.7625L7.9125 3.26877C7.92188 3.08283 7.83906 2.90783 7.68437 2.79221C7.58906 2.72189 7.47188 2.68596 7.35469 2.68752C7.04844 2.68908 6.77813 2.89689 6.69531 3.19221C6.11563 5.29221 5.68125 6.86721 5.39062 7.91877V13.3125H11.6313C11.7874 13.2425 11.9201 13.1289 12.0132 12.9853C12.1063 12.8417 12.156 12.6743 12.1562 12.5031C12.1562 12.3516 12.1203 12.2078 12.0484 12.0766L11.8313 11.6797L12.1734 11.3828C12.2698 11.2994 12.347 11.1962 12.3998 11.0803C12.4527 10.9643 12.4799 10.8384 12.4797 10.711C12.4797 10.5594 12.4437 10.4156 12.3719 10.2844L12.1547 9.88752L12.4969 9.59064C12.5932 9.50723 12.6704 9.40403 12.7232 9.28809C12.7761 9.17215 12.8033 9.04618 12.8031 8.91877C12.8031 8.76721 12.7672 8.62346 12.6953 8.49221L12.4766 8.09377L12.8188 7.79689C12.9151 7.71348 12.9923 7.61028 13.0451 7.49434C13.098 7.3784 13.1252 7.25243 13.125 7.12502C13.125 6.82658 12.9531 6.53908 12.675 6.36877Z" fill="#E6F7FF"/>
      <path d="M1.75 8.25005V13.9375C1.75 14.2141 1.97344 14.4375 2.25 14.4375H3.26562V7.75005H2.25C1.97344 7.75005 1.75 7.97349 1.75 8.25005ZM13.8422 8.33911C14.1047 7.99224 14.25 7.56724 14.25 7.12505C14.25 6.42349 13.8578 5.75786 13.2266 5.39067C13.0641 5.29535 12.879 5.24519 12.6906 5.24536H8.94219L9.03594 3.32505C9.05937 2.86099 8.89531 2.42036 8.575 2.08442C8.4187 1.91868 8.23 1.78683 8.02061 1.69705C7.81123 1.60728 7.58563 1.5615 7.35781 1.56255C6.54531 1.56255 5.82656 2.10942 5.61094 2.89224L4.27031 7.74849L4.26562 14.436H11.6422C11.7875 14.436 11.9266 14.4079 12.0562 14.3516C12.8 14.0344 13.2797 13.3079 13.2797 12.5016C13.2797 12.3047 13.2516 12.111 13.1953 11.9235C13.4578 11.5766 13.6031 11.1516 13.6031 10.7094C13.6031 10.5125 13.575 10.3188 13.5188 10.1313C13.7812 9.78442 13.9266 9.35942 13.9266 8.91724C13.9266 8.72036 13.8984 8.52661 13.8422 8.33911ZM12.8188 7.79692L12.4766 8.0938L12.6953 8.49224C12.7669 8.62297 12.804 8.76976 12.8031 8.9188C12.8031 9.17661 12.6922 9.42192 12.4969 9.59067L12.1547 9.88755L12.3719 10.2844C12.4434 10.4152 12.4805 10.562 12.4797 10.711C12.4797 10.9688 12.3687 11.2141 12.1734 11.3829L11.8313 11.6797L12.0484 12.0766C12.12 12.2073 12.1571 12.3541 12.1562 12.5032C12.1562 12.8532 11.95 13.1688 11.6313 13.3125H5.39062V7.9188C5.68125 6.8688 6.11562 5.2938 6.69531 3.19224C6.73581 3.04809 6.82198 2.92098 6.94087 2.82998C7.05977 2.73898 7.20497 2.689 7.35469 2.68755C7.47188 2.68599 7.58906 2.72192 7.68437 2.79224C7.83906 2.90786 7.92188 3.08286 7.9125 3.2688L7.7625 6.3688H12.675C12.9531 6.53911 13.125 6.82661 13.125 7.12505C13.125 7.38286 13.0141 7.62817 12.8188 7.79692Z"/>
    </g>
  </symbol>

  <symbol id="like-active" viewBox="0 0 16 16">
    <g>
      <path d="M4.26562 7.74846V14.436L4.27031 7.74846H4.26562ZM12.675 6.36877H7.7625L7.9125 3.26877C7.92188 3.08283 7.83906 2.90783 7.68437 2.79221C7.58906 2.72189 7.47188 2.68596 7.35469 2.68752C7.04844 2.68908 6.77813 2.89689 6.69531 3.19221C6.11563 5.29221 5.68125 6.86721 5.39062 7.91877V13.3125H11.6313C11.7874 13.2425 11.9201 13.1289 12.0132 12.9853C12.1063 12.8417 12.156 12.6743 12.1562 12.5031C12.1562 12.3516 12.1203 12.2078 12.0484 12.0766L11.8313 11.6797L12.1734 11.3828C12.2698 11.2994 12.347 11.1962 12.3998 11.0803C12.4527 10.9643 12.4799 10.8384 12.4797 10.711C12.4797 10.5594 12.4437 10.4156 12.3719 10.2844L12.1547 9.88752L12.4969 9.59064C12.5932 9.50723 12.6704 9.40403 12.7232 9.28809C12.7761 9.17215 12.8033 9.04618 12.8031 8.91877C12.8031 8.76721 12.7672 8.62346 12.6953 8.49221L12.4766 8.09377L12.8188 7.79689C12.9151 7.71348 12.9923 7.61028 13.0451 7.49434C13.098 7.3784 13.1252 7.25243 13.125 7.12502C13.125 6.82658 12.9531 6.53908 12.675 6.36877Z" fill="#E6F7FF"/>
      <path d="M1.75 8.25005V13.9375C1.75 14.2141 1.97344 14.4375 2.25 14.4375H3.26562V7.75005H2.25C1.97344 7.75005 1.75 7.97349 1.75 8.25005ZM13.8422 8.33911C14.1047 7.99224 14.25 7.56724 14.25 7.12505C14.25 6.42349 13.8578 5.75786 13.2266 5.39067C13.0641 5.29535 12.879 5.24519 12.6906 5.24536H8.94219L9.03594 3.32505C9.05937 2.86099 8.89531 2.42036 8.575 2.08442C8.4187 1.91868 8.23 1.78683 8.02061 1.69705C7.81123 1.60728 7.58563 1.5615 7.35781 1.56255C6.54531 1.56255 5.82656 2.10942 5.61094 2.89224L4.27031 7.74849L4.26562 14.436H11.6422C11.7875 14.436 11.9266 14.4079 12.0562 14.3516C12.8 14.0344 13.2797 13.3079 13.2797 12.5016C13.2797 12.3047 13.2516 12.111 13.1953 11.9235C13.4578 11.5766 13.6031 11.1516 13.6031 10.7094C13.6031 10.5125 13.575 10.3188 13.5188 10.1313C13.7812 9.78442 13.9266 9.35942 13.9266 8.91724C13.9266 8.72036 13.8984 8.52661 13.8422 8.33911ZM12.8188 7.79692L12.4766 8.0938L12.6953 8.49224C12.7669 8.62297 12.804 8.76976 12.8031 8.9188C12.8031 9.17661 12.6922 9.42192 12.4969 9.59067L12.1547 9.88755L12.3719 10.2844C12.4434 10.4152 12.4805 10.562 12.4797 10.711C12.4797 10.9688 12.3687 11.2141 12.1734 11.3829L11.8313 11.6797L12.0484 12.0766C12.12 12.2073 12.1571 12.3541 12.1562 12.5032C12.1562 12.8532 11.95 13.1688 11.6313 13.3125H5.39062V7.9188C5.68125 6.8688 6.11562 5.2938 6.69531 3.19224C6.73581 3.04809 6.82198 2.92098 6.94087 2.82998C7.05977 2.73898 7.20497 2.689 7.35469 2.68755C7.47188 2.68599 7.58906 2.72192 7.68437 2.79224C7.83906 2.90786 7.92188 3.08286 7.9125 3.2688L7.7625 6.3688H12.675C12.9531 6.53911 13.125 6.82661 13.125 7.12505C13.125 7.38286 13.0141 7.62817 12.8188 7.79692Z" fill="#1890FF"/>
    </g>
  </symbol>

  <symbol id="share" viewBox="0 0 24 24">
    <g>
      <path d="M17.625 15.5625C16.957 15.5625 16.3406 15.7969 15.8578 16.1883L11.0016 12.675C11.0829 12.2287 11.0829 11.7713 11.0016 11.325L15.8578 7.81172C16.3406 8.20312 16.957 8.4375 17.625 8.4375C19.1766 8.4375 20.4375 7.17656 20.4375 5.625C20.4375 4.07344 19.1766 2.8125 17.625 2.8125C16.0734 2.8125 14.8125 4.07344 14.8125 5.625C14.8125 5.89687 14.85 6.15703 14.9227 6.40547L10.3102 9.74531C9.62578 8.83828 8.53828 8.25 7.3125 8.25C5.24062 8.25 3.5625 9.92812 3.5625 12C3.5625 14.0719 5.24062 15.75 7.3125 15.75C8.53828 15.75 9.62578 15.1617 10.3102 14.2547L14.9227 17.5945C14.85 17.843 14.8125 18.1055 14.8125 18.375C14.8125 19.9266 16.0734 21.1875 17.625 21.1875C19.1766 21.1875 20.4375 19.9266 20.4375 18.375C20.4375 16.8234 19.1766 15.5625 17.625 15.5625ZM17.625 4.40625C18.2977 4.40625 18.8438 4.95234 18.8438 5.625C18.8438 6.29766 18.2977 6.84375 17.625 6.84375C16.9523 6.84375 16.4062 6.29766 16.4062 5.625C16.4062 4.95234 16.9523 4.40625 17.625 4.40625ZM7.3125 14.0625C6.17578 14.0625 5.25 13.1367 5.25 12C5.25 10.8633 6.17578 9.9375 7.3125 9.9375C8.44922 9.9375 9.375 10.8633 9.375 12C9.375 13.1367 8.44922 14.0625 7.3125 14.0625ZM17.625 19.5938C16.9523 19.5938 16.4062 19.0477 16.4062 18.375C16.4062 17.7023 16.9523 17.1562 17.625 17.1562C18.2977 17.1562 18.8438 17.7023 18.8438 18.375C18.8438 19.0477 18.2977 19.5938 17.625 19.5938Z"/>
    </g>
  </symbol>

  <symbol id="dots" viewBox="0 0 24 24">
    <g>
      <path d="M4.125 11.9766C4.125 12.1489 4.15895 12.3196 4.22491 12.4788C4.29087 12.6381 4.38755 12.7828 4.50942 12.9046C4.6313 13.0265 4.77599 13.1232 4.93523 13.1892C5.09447 13.2551 5.26514 13.2891 5.4375 13.2891C5.60986 13.2891 5.78053 13.2551 5.93977 13.1892C6.09901 13.1232 6.2437 13.0265 6.36558 12.9046C6.48745 12.7828 6.58413 12.6381 6.65009 12.4788C6.71605 12.3196 6.75 12.1489 6.75 11.9766C6.75 11.8042 6.71605 11.6335 6.65009 11.4743C6.58413 11.3151 6.48745 11.1704 6.36558 11.0485C6.2437 10.9266 6.09901 10.8299 5.93977 10.764C5.78053 10.698 5.60986 10.6641 5.4375 10.6641C5.26514 10.6641 5.09447 10.698 4.93523 10.764C4.77599 10.8299 4.6313 10.9266 4.50942 11.0485C4.38755 11.1704 4.29087 11.3151 4.22491 11.4743C4.15895 11.6335 4.125 11.8042 4.125 11.9766ZM10.6875 11.9766C10.6875 12.3247 10.8258 12.6585 11.0719 12.9046C11.3181 13.1508 11.6519 13.2891 12 13.2891C12.3481 13.2891 12.6819 13.1508 12.9281 12.9046C13.1742 12.6585 13.3125 12.3247 13.3125 11.9766C13.3125 11.6285 13.1742 11.2946 12.9281 11.0485C12.6819 10.8023 12.3481 10.6641 12 10.6641C11.6519 10.6641 11.3181 10.8023 11.0719 11.0485C10.8258 11.2946 10.6875 11.6285 10.6875 11.9766ZM17.25 11.9766C17.25 12.3247 17.3883 12.6585 17.6344 12.9046C17.8806 13.1508 18.2144 13.2891 18.5625 13.2891C18.9106 13.2891 19.2444 13.1508 19.4906 12.9046C19.7367 12.6585 19.875 12.3247 19.875 11.9766C19.875 11.6285 19.7367 11.2946 19.4906 11.0485C19.2444 10.8023 18.9106 10.6641 18.5625 10.6641C18.2144 10.6641 17.8806 10.8023 17.6344 11.0485C17.3883 11.2946 17.25 11.6285 17.25 11.9766Z" fill="#595959"/>
    </g>
  </symbol>

</svg>
